<?xml version="1.0" encoding="utf-8"?>
<!-- Generator: Adobe Illustrator 21.1.0, SVG Export Plug-In . SVG Version: 6.00 Build 0)  -->
<svg version="1.1" id="レイヤー_1" xmlns="http://www.w3.org/2000/svg" xmlns:xlink="http://www.w3.org/1999/xlink" x="0px"
	 y="0px" viewBox="0 0 960 560" style="enable-background:new 0 0 960 560;" xml:space="preserve">
<style type="text/css">
	.st0{fill:#155342;}
	.st1{fill:#126B4F;}
	.st2{fill:#ABABAB;}
	.st3{fill:#646464;}
	.st4{fill:#F3EDC6;}
	.st5{fill:#222C30;}
	.st6{fill:#BFC9C6;}
	.st7{fill:#FFFFFF;}
	.st8{fill:#AC976C;}
	.st9{fill:#C9C9C9;}
	.st10{fill:#C4A979;}
	.st11{fill:#91826C;}
	.st12{fill:#F7FAFA;}
	.st13{enable-background:new    ;}
</style>
<g>
	<rect x="304" y="158.7" class="st0" width="351" height="244.6"/>
	<rect x="304" y="158" class="st1" width="74" height="56.6"/>
	<rect x="308.4" y="162.4" class="st2" width="7" height="47.9"/>
	<g>
		<circle class="st2" cx="349.3" cy="186.3" r="19.2"/>
		<g>
			<rect x="334.4" y="184.8" class="st3" width="29.7" height="3"/>
			<rect x="347.8" y="177.7" class="st3" width="3" height="17.1"/>
		</g>
	</g>
	<rect x="304" y="220.7" class="st1" width="74" height="56.6"/>
	<rect x="308.4" y="225" class="st2" width="7" height="47.9"/>
	<g>
		<circle class="st2" cx="349.3" cy="249" r="19.2"/>
		<g>
			<rect x="334.4" y="247.5" class="st3" width="29.7" height="3"/>
			<rect x="347.7" y="240.4" class="st3" width="3" height="17.1"/>
		</g>
	</g>
	<rect x="304" y="283.4" class="st1" width="74" height="56.6"/>
	<rect x="308.4" y="287.7" class="st2" width="7" height="47.9"/>
	<g>
		<circle class="st2" cx="349.3" cy="311.7" r="19.2"/>
		<g>
			<rect x="334.4" y="310.2" class="st3" width="29.7" height="3"/>
			<rect x="347.7" y="303.1" class="st3" width="3" height="17.1"/>
		</g>
	</g>
	<rect x="304" y="346" class="st1" width="74" height="56.6"/>
	<rect x="308.4" y="350.4" class="st2" width="7" height="47.9"/>
	<g>
		<circle class="st2" cx="349.3" cy="374.3" r="19.2"/>
		<g>
			<rect x="334.4" y="372.9" class="st3" width="29.7" height="3"/>
			<rect x="347.7" y="365.8" class="st3" width="3" height="17.1"/>
		</g>
	</g>
	<circle cx="429" cy="194.1" r="27"/>
	<path class="st4" d="M386.6,158.9v67h86v-67H386.6z M429.6,213.7c-11.8,0-21.3-9.5-21.3-21.3s9.5-21.3,21.3-21.3
		s21.3,9.5,21.3,21.3S441.4,213.7,429.6,213.7z"/>
	<g>
		<circle cx="429" cy="371.5" r="27"/>
		<path class="st4" d="M386.6,336.3v67h86v-67H386.6z M429.6,391.1c-11.8,0-21.3-9.5-21.3-21.3s9.5-21.3,21.3-21.3
			s21.3,9.5,21.3,21.3S441.4,391.1,429.6,391.1z"/>
	</g>
	<g>
		<rect x="446.2" y="257.5" class="st5" width="75.5" height="47"/>
		<g>
			<rect x="447.8" y="245.3" class="st6" width="4" height="15"/>
			<rect x="457.8" y="245.3" class="st6" width="4" height="15"/>
			<rect x="467.8" y="245.3" class="st6" width="4" height="15"/>
			<rect x="477.8" y="245.3" class="st6" width="4" height="15"/>
			<rect x="487.8" y="245.3" class="st6" width="4" height="15"/>
			<rect x="497.8" y="245.3" class="st6" width="4" height="15"/>
			<rect x="507.8" y="245.3" class="st6" width="4" height="15"/>
			<rect x="517.8" y="245.3" class="st6" width="4" height="15"/>
			<rect x="447.8" y="301.7" class="st6" width="4" height="15"/>
			<rect x="457.8" y="301.7" class="st6" width="4" height="15"/>
			<rect x="467.8" y="301.7" class="st6" width="4" height="15"/>
			<rect x="477.8" y="301.7" class="st6" width="4" height="15"/>
			<rect x="487.8" y="301.7" class="st6" width="4" height="15"/>
			<rect x="497.8" y="301.7" class="st6" width="4" height="15"/>
			<rect x="507.8" y="301.7" class="st6" width="4" height="15"/>
			<rect x="517.8" y="301.7" class="st6" width="4" height="15"/>
		</g>
	</g>
	<g>
		<path class="st7" d="M538.1,319.4v-10.8l0,0l-2,1.1l-0.3-1l2.5-1.4h1.1v12L538.1,319.4L538.1,319.4z"/>
		<path class="st7" d="M544,338.1c-0.7,0.3-1.9,0.6-3.5,0.6c-4.8,0-5.9-3.6-5.9-6.2c0-3.7,2.4-6.3,6.3-6.3c1.2,0,2.2,0.2,2.8,0.5
			l-0.4,1.1c-0.6-0.3-1.4-0.5-2.5-0.5c-2.9,0-4.8,1.9-4.8,5.1c0,3.3,1.8,5.1,4.6,5.1c1,0,1.7-0.2,2.1-0.4v-3.9h-2.5v-1.1h3.8
			L544,338.1L544,338.1z"/>
		<path class="st7" d="M543.3,357.5c-0.6,0.3-1.7,0.5-3,0.5c-3.1,0-5.7-2-5.7-6.2c0-3.9,2.5-6.4,6-6.4c1.5,0,2.3,0.3,2.7,0.5
			l-0.4,1.1c-0.6-0.3-1.3-0.5-2.3-0.5c-2.8,0-4.7,1.9-4.7,5.2c0,3.2,1.7,5.1,4.6,5.1c0.9,0,1.8-0.2,2.5-0.5L543.3,357.5z"/>
		<path class="st7" d="M535.3,365c0.9-0.1,1.9-0.3,3.1-0.3c4.9,0,6.3,2.9,6.3,5.9c0,1.9-0.5,3.6-1.7,4.8c-1.1,1.1-2.9,1.7-5.1,1.7
			c-1,0-1.9,0-2.6-0.1V365z M536.6,376c0.4,0.1,1,0.1,1.6,0.1c3.3,0,5.1-1.9,5.1-5.4c0-3.2-1.7-4.9-4.9-4.9c-0.8,0-1.4,0.1-1.8,0.2
			L536.6,376L536.6,376z"/>
	</g>
	<g>
		<path class="st7" d="M561.3,399.4h-1.2L559,396h-3.6l-1.1,3.4h-1.2l3.4-10.4h1.3L561.3,399.4z M558.8,395.1l-1-3.1
			c-0.2-0.7-0.4-1.4-0.5-2l0,0c-0.1,0.6-0.3,1.3-0.5,1.9l-1,3.1h3V395.1z"/>
		<path class="st7" d="M565.2,399.4v-9.1l0,0l-1.7,1l-0.3-0.8l2.1-1.2h1v10.2h-1.1V399.4z"/>
	</g>
	<g>
		<path class="st7" d="M580.9,399.4h-1.2l-1.1-3.4H575l-1.1,3.4h-1.2l3.4-10.4h1.3L580.9,399.4z M578.4,395.1l-1-3.1
			c-0.2-0.7-0.4-1.4-0.5-2l0,0c-0.1,0.6-0.3,1.3-0.5,1.9l-1,3.1h3V395.1z"/>
		<path class="st7" d="M581.8,394.3c0-3.6,1.4-5.3,3.3-5.3c1.9,0,3.1,1.8,3.1,5.2c0,3.5-1.2,5.4-3.3,5.4
			C583.1,399.5,581.8,397.7,581.8,394.3z M587.1,394.2c0-2.5-0.6-4.3-2-4.3c-1.2,0-2.1,1.6-2.1,4.3c0,2.7,0.7,4.4,2,4.4
			C586.5,398.6,587.1,396.6,587.1,394.2z"/>
	</g>
	<g>
		<g>
			<path class="st8" d="M560,301.7c-4.2,0.3-7.4,3.8-7.4,8s3.3,7.7,7.4,8V301.7z"/>
			<path class="st8" d="M561.2,301.7v16c4.2-0.3,7.4-3.8,7.4-8C568.6,305.5,565.4,302,561.2,301.7z"/>
		</g>
	</g>
	<g>
		<g>
			<path class="st8" d="M560,323.4c-4.2,0.3-7.4,3.8-7.4,8s3.3,7.7,7.4,8V323.4z"/>
			<path class="st8" d="M561.2,323.4v16c4.2-0.3,7.4-3.8,7.4-8C568.6,327.2,565.4,323.7,561.2,323.4z"/>
		</g>
	</g>
	<g>
		<g>
			<path class="st8" d="M560,345.1c-4.2,0.3-7.4,3.8-7.4,8s3.3,7.7,7.4,8V345.1z"/>
			<path class="st8" d="M561.2,345.1v16c4.2-0.3,7.4-3.8,7.4-8C568.6,348.9,565.4,345.4,561.2,345.1z"/>
		</g>
	</g>
	<g>
		<g>
			<path class="st8" d="M560,366.8c-4.2,0.3-7.4,3.8-7.4,8s3.3,7.7,7.4,8V366.8z"/>
			<path class="st8" d="M561.2,366.8v16c4.2-0.3,7.4-3.8,7.4-8C568.6,370.6,565.4,367.1,561.2,366.8z"/>
		</g>
	</g>
	<g>
		<g>
			<path class="st8" d="M582.3,301.7c-4.2,0.3-7.4,3.8-7.4,8s3.3,7.7,7.4,8V301.7z"/>
			<path class="st8" d="M583.6,301.7v16c4.2-0.3,7.4-3.8,7.4-8S587.7,302,583.6,301.7z"/>
		</g>
	</g>
	<g>
		<g>
			<path class="st8" d="M582.3,323.4c-4.2,0.3-7.4,3.8-7.4,8s3.3,7.7,7.4,8V323.4z"/>
			<path class="st8" d="M583.6,323.4v16c4.2-0.3,7.4-3.8,7.4-8C591,327.2,587.7,323.7,583.6,323.4z"/>
		</g>
	</g>
	<g>
		<g>
			<path class="st8" d="M582.3,345.1c-4.2,0.3-7.4,3.8-7.4,8s3.3,7.7,7.4,8V345.1z"/>
			<path class="st8" d="M583.6,345.1v16c4.2-0.3,7.4-3.8,7.4-8S587.7,345.4,583.6,345.1z"/>
		</g>
	</g>
	<g>
		<g>
			<path class="st8" d="M582.3,366.8c-4.2,0.3-7.4,3.8-7.4,8s3.3,7.7,7.4,8V366.8z"/>
			<path class="st8" d="M583.6,366.8v16c4.2-0.3,7.4-3.8,7.4-8C591,370.6,587.7,367.1,583.6,366.8z"/>
		</g>
	</g>
	<path class="st9" d="M563.1,334.4h-4.6c-1.6,0-2.9-1.3-2.9-2.9l0,0c0-1.6,1.3-2.9,2.9-2.9h4.6c1.6,0,2.9,1.3,2.9,2.9l0,0
		C566,333.1,564.7,334.4,563.1,334.4z"/>
	<path class="st9" d="M585.3,334.4h-4.6c-1.6,0-2.9-1.3-2.9-2.9l0,0c0-1.6,1.3-2.9,2.9-2.9h4.6c1.6,0,2.9,1.3,2.9,2.9l0,0
		C588.2,333.1,586.9,334.4,585.3,334.4z"/>
</g>
<g>
	<g>
		<circle class="st10" cx="632.2" cy="210.2" r="12.9"/>
		<ellipse transform="matrix(0.2765 -0.961 0.961 0.2765 255.3242 759.6227)" cx="632.2" cy="210.2" rx="6.5" ry="6.5"/>
	</g>
	<g>
		<circle class="st10" cx="632.2" cy="245.3" r="12.9"/>
		<ellipse transform="matrix(0.2765 -0.961 0.961 0.2765 221.6018 785.0193)" cx="632.2" cy="245.3" rx="6.5" ry="6.5"/>
	</g>
	<g>
		<circle class="st10" cx="632.2" cy="280.4" r="12.9"/>
		<ellipse transform="matrix(0.2765 -0.961 0.961 0.2765 187.8795 810.4158)" cx="632.2" cy="280.4" rx="6.5" ry="6.5"/>
	</g>
	<g>
		<circle class="st10" cx="632.2" cy="315.5" r="12.9"/>
		<ellipse transform="matrix(0.2765 -0.961 0.961 0.2765 154.1572 835.8123)" cx="632.2" cy="315.5" rx="6.5" ry="6.5"/>
	</g>
	<g>
		<circle class="st10" cx="632.2" cy="350.6" r="12.9"/>
		<ellipse transform="matrix(0.2765 -0.961 0.961 0.2765 120.4348 861.2089)" cx="632.2" cy="350.6" rx="6.5" ry="6.5"/>
	</g>
</g>
<g>
	<rect x="492.8" y="213.6" class="st11" width="20.4" height="7.5"/>
	<rect x="507.9" y="210.4" class="st12" width="10.7" height="14"/>
	<rect x="484.8" y="210.4" class="st12" width="10.7" height="14"/>
</g>
<g>
	<rect x="549.5" y="243.9" class="st11" width="7.5" height="20.4"/>
	<rect x="546.2" y="259" class="st12" width="14" height="10.7"/>
	<rect x="546.2" y="235.9" class="st12" width="14" height="10.7"/>
</g>
<g class="st13">
	<path class="st7" d="M545,164.4h1.3v13.3H545V164.4z"/>
	<path class="st7" d="M549.4,177.7v-13.3h0.3l8.9,10.2v-10.2h1.3v13.3h-0.3l-8.8-10.1v10.1H549.4z"/>
	<path class="st7" d="M568.6,164.4l6.2,13.3h-1.4l-2.1-4.4h-5.7l-2.1,4.4H562l6.3-13.3H568.6z M568.4,167.2l-2.3,4.8h4.6
		L568.4,167.2z"/>
	<path class="st7" d="M577.4,168.5h-1.3c0-1.3,0.5-2.4,1.3-3.2c0.8-0.8,1.9-1.3,3.1-1.3c1.2,0,2.2,0.4,3,1.2
		c0.8,0.8,1.1,1.7,1.1,2.8c0,0.8-0.2,1.5-0.5,2.1c-0.4,0.7-1.1,1.6-2.1,2.7l-3.3,3.6h6.2v1.3h-9.1l5.1-5.5c1-1.1,1.7-1.9,2-2.5
		c0.3-0.5,0.5-1.1,0.5-1.7c0-0.8-0.3-1.4-0.8-1.9c-0.6-0.5-1.2-0.8-2.1-0.8c-0.9,0-1.6,0.3-2.1,0.9
		C577.8,166.7,577.5,167.5,577.4,168.5z"/>
	<path class="st7" d="M592.3,164l1.1,0.7l-3.6,5.5c0.5-0.2,0.9-0.2,1.4-0.2c1.1,0,2,0.4,2.7,1.1c0.7,0.8,1.1,1.7,1.1,2.8
		c0,0.8-0.2,1.5-0.5,2.1c-0.4,0.6-0.9,1.1-1.5,1.5s-1.4,0.5-2.1,0.5c-0.7,0-1.4-0.2-2-0.5c-0.6-0.4-1.1-0.9-1.5-1.5
		c-0.4-0.6-0.5-1.3-0.5-2.1c0-0.5,0.1-1.1,0.3-1.7c0.2-0.6,0.6-1.3,1.2-2.2L592.3,164z M590.9,171.1c-0.8,0-1.4,0.3-2,0.8
		c-0.5,0.5-0.8,1.2-0.8,2c0,0.8,0.3,1.4,0.8,2s1.2,0.8,2,0.8s1.4-0.3,2-0.8c0.5-0.5,0.8-1.2,0.8-2c0-0.8-0.3-1.4-0.8-2
		C592.3,171.4,591.6,171.1,590.9,171.1z"/>
	<path class="st7" d="M596.4,171c0-1.8,0.2-3.1,0.6-4.1c0.4-1,0.9-1.7,1.6-2.2s1.5-0.7,2.3-0.7c0.9,0,1.6,0.2,2.3,0.7
		c0.7,0.5,1.3,1.2,1.7,2.2c0.4,1,0.6,2.3,0.6,4c0,1.7-0.2,3-0.6,4c-0.4,1-1,1.7-1.7,2.2c-0.7,0.5-1.5,0.8-2.4,0.8
		c-0.9,0-1.6-0.2-2.3-0.7s-1.2-1.2-1.6-2.2C596.6,174.1,596.4,172.8,596.4,171z M597.7,171.1c0,1.5,0.1,2.6,0.4,3.4
		c0.3,0.8,0.7,1.4,1.2,1.8c0.5,0.4,1.1,0.6,1.7,0.6c0.6,0,1.1-0.2,1.7-0.6c0.5-0.4,0.9-1,1.2-1.8c0.3-0.9,0.5-2.1,0.5-3.4
		c0-1.3-0.1-2.4-0.4-3.3s-0.7-1.5-1.2-1.9c-0.5-0.4-1.1-0.6-1.7-0.6c-0.6,0-1.1,0.2-1.7,0.6c-0.5,0.4-0.9,1-1.2,1.8
		C597.8,168.4,597.7,169.5,597.7,171.1z"/>
</g>
<g class="st13">
	<path class="st7" d="M542.2,183.8h1.1c-0.4,0.9-0.8,1.9-1,3.1c-0.3,1.2-0.4,2.4-0.4,3.6c0,1.2,0.1,2.3,0.3,3.3
		c0.2,1.1,0.5,2,0.8,2.8h-1c-0.3-0.8-0.6-1.7-0.8-2.8c-0.2-1.1-0.3-2.2-0.3-3.3c0-1.2,0.1-2.4,0.3-3.6
		C541.4,185.9,541.7,184.8,542.2,183.8z"/>
	<path class="st7" d="M554.3,186l-0.8,0.6c-0.4-0.5-0.9-1-1.5-1.2c-0.6-0.3-1.2-0.4-1.9-0.4c-0.8,0-1.5,0.2-2.1,0.6
		c-0.7,0.4-1.2,0.9-1.5,1.5c-0.4,0.6-0.5,1.3-0.5,2.1c0,1.2,0.4,2.2,1.2,3c0.8,0.8,1.8,1.2,3.1,1.2c1.4,0,2.5-0.5,3.4-1.6l0.8,0.6
		c-0.5,0.6-1.1,1.1-1.8,1.4c-0.7,0.3-1.5,0.5-2.4,0.5c-1.7,0-3-0.6-4-1.7c-0.8-1-1.2-2.1-1.2-3.4c0-1.4,0.5-2.6,1.5-3.6
		c1-1,2.2-1.5,3.7-1.5c0.9,0,1.7,0.2,2.4,0.5S553.8,185.4,554.3,186z"/>
	<path class="st7" d="M556.9,196.7h-1.1c0.4-0.9,0.8-1.9,1-3.1s0.4-2.4,0.4-3.6c0-1.2-0.1-2.3-0.3-3.3c-0.2-1.1-0.5-2-0.8-2.8h1
		c0.3,0.8,0.6,1.7,0.8,2.8c0.2,1.1,0.3,2.2,0.3,3.3c0,1.2-0.1,2.4-0.3,3.6C557.7,194.6,557.3,195.7,556.9,196.7z"/>
	<path class="st7" d="M561.5,187.2h-0.9c0-1,0.3-1.7,1-2.4c0.6-0.6,1.4-0.9,2.3-0.9c0.9,0,1.6,0.3,2.2,0.9c0.6,0.6,0.8,1.3,0.8,2
		c0,0.5-0.1,1.1-0.4,1.5s-0.8,1.1-1.5,2l-2.4,2.6h4.5v0.9h-6.6l3.7-4c0.8-0.8,1.2-1.4,1.5-1.8c0.2-0.4,0.3-0.8,0.3-1.2
		c0-0.5-0.2-1-0.6-1.4c-0.4-0.4-0.9-0.6-1.5-0.6c-0.6,0-1.1,0.2-1.5,0.6S561.6,186.5,561.5,187.2z"/>
	<path class="st7" d="M567.9,189.1c0-1.3,0.1-2.3,0.4-3c0.3-0.7,0.7-1.2,1.2-1.6c0.5-0.4,1.1-0.5,1.7-0.5c0.6,0,1.2,0.2,1.7,0.5
		c0.5,0.4,0.9,0.9,1.2,1.6c0.3,0.7,0.4,1.7,0.4,2.9c0,1.2-0.1,2.2-0.4,2.9s-0.7,1.3-1.2,1.6c-0.5,0.4-1.1,0.5-1.7,0.5
		c-0.6,0-1.2-0.2-1.7-0.5c-0.5-0.4-0.9-0.9-1.2-1.6S567.9,190.3,567.9,189.1z M568.8,189.1c0,1.1,0.1,1.9,0.3,2.5s0.5,1,0.9,1.3
		s0.8,0.4,1.2,0.4c0.4,0,0.8-0.1,1.2-0.4c0.4-0.3,0.7-0.7,0.8-1.3c0.2-0.7,0.4-1.5,0.4-2.5c0-1-0.1-1.8-0.3-2.4s-0.5-1.1-0.9-1.4
		c-0.4-0.3-0.8-0.4-1.2-0.4c-0.4,0-0.8,0.1-1.2,0.4c-0.4,0.3-0.7,0.7-0.9,1.3C568.9,187.2,568.8,188,568.8,189.1z"/>
	<path class="st7" d="M577.4,184.2h1.9v9.7h-1v-8.7h-1.5L577.4,184.2z"/>
	<path class="st7" d="M583.4,184.2h6.1l-5.2,9.9l-0.8-0.4l4.5-8.6h-4.6V184.2z"/>
	<path class="st7" d="M590,192.1l0.8-0.5c0.6,1.1,1.2,1.6,2,1.6c0.3,0,0.6-0.1,0.9-0.2s0.5-0.4,0.7-0.6c0.1-0.3,0.2-0.5,0.2-0.8
		c0-0.3-0.1-0.6-0.3-1c-0.3-0.4-0.9-0.9-1.7-1.6c-0.8-0.6-1.3-1.1-1.5-1.3c-0.3-0.5-0.5-1-0.5-1.5c0-0.4,0.1-0.8,0.3-1.2
		c0.2-0.3,0.5-0.6,0.9-0.8c0.4-0.2,0.8-0.3,1.2-0.3c0.5,0,0.9,0.1,1.3,0.3c0.4,0.2,0.8,0.6,1.3,1.2l-0.8,0.6c-0.4-0.5-0.7-0.8-0.9-1
		s-0.5-0.2-0.8-0.2c-0.4,0-0.7,0.1-1,0.4c-0.2,0.2-0.4,0.5-0.4,0.9c0,0.2,0,0.4,0.1,0.6s0.2,0.4,0.5,0.6c0.1,0.1,0.5,0.4,1.2,1
		c0.8,0.6,1.4,1.2,1.7,1.7s0.5,1,0.5,1.5c0,0.7-0.3,1.3-0.8,1.8c-0.5,0.5-1.2,0.8-1.9,0.8c-0.6,0-1.1-0.2-1.6-0.5
		C590.9,193.4,590.4,192.8,590,192.1z"/>
	<path class="st7" d="M597.8,184.2h1.9c0.8,0,1.4,0.1,1.8,0.3c0.4,0.2,0.7,0.5,1,0.8s0.4,0.8,0.4,1.3c0,0.4-0.1,0.8-0.3,1.2
		c-0.2,0.4-0.5,0.6-0.9,0.9c0.5,0.2,0.9,0.4,1.2,0.6c0.3,0.2,0.5,0.5,0.6,0.8c0.2,0.3,0.2,0.7,0.2,1.1c0,0.8-0.3,1.4-0.9,2
		c-0.6,0.5-1.3,0.8-2.3,0.8h-2.7V184.2z M598.7,185.2v3.1h0.6c0.7,0,1.2-0.1,1.5-0.2c0.3-0.1,0.6-0.3,0.8-0.6
		c0.2-0.3,0.3-0.6,0.3-0.9c0-0.4-0.2-0.8-0.5-1s-0.8-0.4-1.5-0.4H598.7z M598.7,189.2v3.7h1.2c0.7,0,1.2-0.1,1.6-0.2
		c0.3-0.1,0.6-0.4,0.8-0.6s0.3-0.6,0.3-1c0-0.4-0.1-0.8-0.4-1.1c-0.3-0.3-0.7-0.5-1.2-0.7c-0.3-0.1-0.9-0.1-1.7-0.1H598.7z"/>
	<path class="st7" d="M605.5,184.2h1v8.7h3.7v0.9h-4.7V184.2z"/>
</g>
</svg>
